0
SECTION
2
HEADER
9
$INSUNITS
70
4
9
$ACADVER
1
AC1014
9
$HANDSEED
5
FFFF
0
ENDSEC
0
SECTION
2
TABLES
0
TABLE
2
VPORT
5
8
100
AcDbSymbolTable
0
ENDTAB
0
TABLE
2
LTYPE
5
5
100
AcDbSymbolTable
0
LTYPE
5
14
100
AcDbSymbolTableRecord
100
AcDbLinetypeTableRecord
2
BYBLOCK
70
0
0
LTYPE
5
15
100
AcDbSymbolTableRecord
100
AcDbLinetypeTableRecord
2
BYLAYER
70
0
0
ENDTAB
0
TABLE
2
LAYER
5
2
100
AcDbSymbolTable
70
2
0
LAYER
5
50
100
AcDbSymbolTableRecord
100
AcDbLayerTableRecord
2
0
70
0
6
CONTINUOUS
0
ENDTAB
0
TABLE
2
STYLE
5
3
100
AcDbSymbolTable
70
1
0
STYLE
5
11
100
AcDbSymbolTableRecord
100
AcDbTextStyleTableRecord
2
STANDARD
70
0
0
ENDTAB
0
TABLE
2
VIEW
5
6
100
AcDbSymbolTable
70
0
0
ENDTAB
0
TABLE
2
UCS
5
7
100
AcDbSymbolTable
70
0
0
ENDTAB
0
TABLE
2
APPID
5
9
100
AcDbSymbolTable
70
2
0
APPID
5
12
100
AcDbSymbolTableRecord
100
AcDbRegAppTableRecord
2
ACAD
70
0
0
ENDTAB
0
TABLE
2
DIMSTYLE
5
A
100
AcDbSymbolTable
70
1
0
ENDTAB
0
TABLE
2
BLOCK_RECORD
5
1
100
AcDbSymbolTable
70
1
0
BLOCK_RECORD
5
1F
100
AcDbSymbolTableRecord
100
AcDbBlockTableRecord
2
*MODEL_SPACE
0
BLOCK_RECORD
5
1B
100
AcDbSymbolTableRecord
100
AcDbBlockTableRecord
2
*PAPER_SPACE
0
ENDTAB
0
ENDSEC
0
SECTION
2
BLOCKS
0
BLOCK
5
20
100
AcDbEntity
100
AcDbBlockBegin
2
*MODEL_SPACE
0
ENDBLK
5
21
100
AcDbEntity
100
AcDbBlockEnd
0
BLOCK
5
1C
100
AcDbEntity
100
AcDbBlockBegin
2
*PAPER_SPACE
0
ENDBLK
5
1D
100
AcDbEntity
100
AcDbBlockEnd
0
ENDSEC
0
SECTION
2
ENTITIES
0
LWPOLYLINE
5
100
100
AcDbEntity
8
0
100
AcDbPolyline
90
4
70
1
43
0.0
10
20.000241533041336
20
19.998398312544964
10
-99.999758466958667
20
19.998398312544964
10
-99.999758466958667
20
-20.001601687455036
10
20.000241533041336
20
-20.001601687455036
0
CIRCLE
5
101
100
AcDbEntity
8
0
100
AcDbCircle
10
0
20
0
30
0
40
3.0000000000000004
210
0
220
0
230
1
0
CIRCLE
5
102
100
AcDbEntity
8
0
100
AcDbCircle
10
-50
20
-0.0016016874550350835
30
0
40
14.000000000000002
210
0
220
0
230
1
0
CIRCLE
5
103
100
AcDbEntity
8
0
100
AcDbCircle
10
-25
20
0
30
0
40
3.25
210
0
220
0
230
1
0
LINE
5
104
100
AcDbEntity
8
0
100
AcDbLine
10
-75
20
-20.001601687455036
30
0
11
-75
21
19.998398312544964
31
0
0
LINE
5
105
100
AcDbEntity
8
0
100
AcDbLine
10
-50
20
13.998398312544966
30
0
11
-50
21
19.998398312544964
31
0
0
LINE
5
106
100
AcDbEntity
8
0
100
AcDbLine
10
-50
20
-20.001601687455036
30
0
11
-50
21
19.998398312544964
31
0
0
LINE
5
107
100
AcDbEntity
8
0
100
AcDbLine
10
-25
20
19.998398312544964
30
0
11
-25
21
-20.001601687455036
31
0
0
LINE
5
108
100
AcDbEntity
8
0
100
AcDbLine
10
-0.15549464431083848
20
19.998398312544964
30
0
11
-0.15549464431083848
21
-20.001601687455036
31
0
0
CIRCLE
5
109
100
AcDbEntity
8
0
100
AcDbCircle
10
-95.000001415610313
20
-15.000000223517418
30
0
40
2.5
210
0
220
0
230
1
0
CIRCLE
5
110
100
AcDbEntity
8
0
100
AcDbCircle
10
-95.000001415610313
20
15.000000223517418
30
0
40
2.5
210
0
220
0
230
1
0
CIRCLE
5
111
100
AcDbEntity
8
0
100
AcDbCircle
10
15.000000223517418
20
-15.000000223517418
30
0
40
2.5
210
0
220
0
230
1
0
CIRCLE
5
112
100
AcDbEntity
8
0
100
AcDbCircle
10
15.000000223517418
20
15.000000223517418
30
0
40
2.5
210
0
220
0
230
1
0
LWPOLYLINE
5
113
100
AcDbEntity
8
0
100
AcDbPolyline
90
4
70
1
43
0.0
10
-89
20
45
10
-95
20
45
10
-95
20
39.000000000000014
10
-89
20
39.000000000000014
0
CIRCLE
5
114
100
AcDbEntity
8
0
100
AcDbCircle
10
-92.036290713774079
20
41.996651740710227
30
0
40
2.0000000000000022
210
0
220
0
230
1
0
LWPOLYLINE
5
115
100
AcDbEntity
8
0
100
AcDbPolyline
90
4
70
1
43
0.0
10
-80.000001192092896
20
45.000000670552254
10
-85.000001266598701
20
45.000000670552254
10
-85.000001266598701
20
40.000000596046448
10
-80.000001192092896
20
40.000000596046448
0
CIRCLE
5
116
100
AcDbEntity
8
0
100
AcDbCircle
10
-82.542077133485947
20
42.47661098202321
30
0
40
1.4999999999999958
210
0
220
0
230
1
0
CIRCLE
5
117
100
AcDbEntity
8
0
100
AcDbCircle
10
-75
20
-0.0016016874550350835
30
0
40
6.0000000000000009
210
0
220
0
230
1
0
CIRCLE
5
118
100
AcDbEntity
8
0
100
AcDbCircle
10
-50
20
-0.0016016874550350835
30
0
40
11
210
0
220
0
230
1
0
LINE
5
119
100
AcDbEntity
8
0
100
AcDbLine
10
-50
20
-0.0016016874550350835
30
0
11
-27.999999999999993
21
-0.0016016874550350835
31
0
0
CIRCLE
5
120
100
AcDbEntity
8
0
100
AcDbCircle
10
-65.556349186104057
20
15.554747498649013
30
0
40
1.9999999999999996
210
0
220
0
230
1
0
LINE
5
121
100
AcDbEntity
8
0
100
AcDbLine
10
-65.556349186104057
20
15.554747498649013
30
0
11
-34.771433138083616
21
-15.882315721638188
31
0
0
CIRCLE
5
122
100
AcDbEntity
8
0
100
AcDbCircle
10
-34.771433138083616
20
-15.882315721638188
30
0
40
1.9999999999999996
210
0
220
0
230
1
0
LWPOLYLINE
5
123
100
AcDbEntity
8
0
100
AcDbPolyline
90
4
70
1
43
0.0
10
-71.77318404923669
20
-14.314803422155876
10
-77.432363736736676
20
-14.314803422155876
10
-77.432363736736676
20
-9.3148034221558955
10
-71.77318404923669
20
-9.3148034221558955
0
LWPOLYLINE
5
124
100
AcDbEntity
8
0
100
AcDbPolyline
90
4
70
1
43
0.0
10
-40.021168210443854
20
-19.341057960951293
10
-58.846851804193825
20
-19.341057960951289
10
-58.846851804193825
20
-14.341057960951298
10
-40.021168210443854
20
-14.3410579609513
0
LWPOLYLINE
5
125
100
AcDbEntity
8
0
100
AcDbPolyline
90
4
70
1
43
0.0
10
-19.929623757158431
20
-8.1166604677253069
10
-29.551205788408428
20
-8.1166604677253069
10
-29.551205788408428
20
-3.1166604677253105
10
-19.929623757158431
20
-3.1166604677253105
0
LWPOLYLINE
5
126
100
AcDbEntity
8
0
100
AcDbPolyline
90
4
70
1
43
0.0
10
14.370641973573111
20
-8.124499605113197
10
-13.373498651426818
20
-8.1244996051132006
10
-13.373498651426821
20
-3.124499605113213
10
14.370641973573107
20
-3.1244996051132117
0
ENDSEC
0
SECTION
2
OBJECTS
0
DICTIONARY
5
C
100
AcDbDictionary
3
ACAD_GROUP
350
D
3
ACAD_MLINESTYLE
350
17
0
DICTIONARY
5
D
100
AcDbDictionary
0
DICTIONARY
5
1A
330
C
100
AcDbDictionary
0
DICTIONARY
5
17
100
AcDbDictionary
0
ENDSEC
0
EOF
